<?xml version="1.0" encoding="utf-8"?>
<!-- Generator: Adobe Illustrator 19.0.0, SVG Export Plug-In . SVG Version: 6.00 Build 0)  -->
<svg version="1.1" xmlns="http://www.w3.org/2000/svg" xmlns:xlink="http://www.w3.org/1999/xlink" x="0px" y="0px"
	 viewBox="0 0 500 500" style="enable-background:new 0 0 500 500;" xml:space="preserve">
<style type="text/css">
	.st0{display:none;fill:#FFFFFF;}
	.st1{fill:#C8EEFB;}
	.st2{fill:#5084DA;}
	.st3{fill:#5193F4;}
	.st4{opacity:0.4;}
	.st5{opacity:0.2278;}
	.st6{opacity:0.5;fill:#605ACA;}
	.st7{fill:#4CA1FF;}
	.st8{fill:#52D2BC;}
	.st9{fill:none;stroke:#00AD9F;stroke-linecap:round;stroke-linejoin:round;stroke-miterlimit:10;}
	.st10{opacity:0.31;fill:none;stroke:#0B43A4;stroke-linecap:round;stroke-linejoin:round;stroke-miterlimit:10;}
	.st11{fill:#4A84D8;}
	.st12{fill:#00AD9F;}
	.st13{opacity:0.5;}
	.st14{fill:#7EE8D4;}
	.st15{opacity:0.37;fill:#5A4FD1;}
	.st16{fill:#0056EC;}
	.st17{fill:#FFFFFF;}
	.st18{clip-path:url(#SVGID_2_);fill:#5084DA;}
	.st19{opacity:9.000000e-002;}
	.st20{opacity:0.3;fill:#94EBFF;}
	.st21{opacity:0.5;fill:#94EBFF;}
	.st22{fill:#F9714E;}
	.st23{opacity:0.4;fill:#F9714E;}
	.st24{fill:#FFB255;}
	.st25{opacity:0.4;fill:#FFB255;}
	.st26{fill:#FFC2D3;}
	.st27{fill:#2E2C84;}
	.st28{opacity:0.3;}
	.st29{opacity:0.5;fill:#2E2C84;}
	.st30{fill:#001F64;}
	.st31{fill:#8FC2FF;}
	.st32{opacity:0.3;fill:#8FC2FF;}
	.st33{opacity:0.3;fill:#FFC2D3;}
	.st34{opacity:0.5;fill:#FFC87C;}
	.st35{fill:#F9ACC8;}
	.st36{opacity:0.1;}
	.st37{fill:#4B48B5;}
	.st38{fill:#568EDB;}
	.st39{fill:#5E9CE4;}
	.st40{opacity:0.16;}
	.st41{fill:#4E84D9;}
	.st42{opacity:0.3;fill:#F9714E;}
	.st43{fill:none;stroke:#086356;stroke-linecap:round;stroke-linejoin:round;stroke-miterlimit:10;}
	.st44{display:none;}
	.st45{display:inline;}
	.st46{fill:#A5B7C6;}
</style>
<g id="BACKGROUND">
	<rect class="st0" width="500" height="500"/>
	<g>
		<path class="st1" d="M453.2,193.1c6.6,12.1,16.3,23.5,17.1,37.1c1.3,21.9-20,38.3-28.7,58.6c-10.7,24.9-1.7,54.2-11.2,79.5
			c-6.9,18.3-23.7,33-43.5,37.8c-14.8,3.6-30.4,2-45.7,2.1c-43.4,0.4-86.7,15.4-129.6,8.6c-21.2-3.4-41.2-12-62.4-14.7
			c-25.5-3.3-55.2,0.7-73.4-16.6c-25.5-24.2-6.6-68.7-25.7-97.7c-6.2-9.4-16.1-16.7-19.4-27.2c-3.9-12.4,2.4-25.5,10.2-36.1
			c7.8-10.5,17.5-20.2,21.7-32.5c3.8-11.1,1.5-23.2-3.2-34c-7.2-16.6,12.9-54.6,52.9-51.7c18.3,1.3,26.6-19.9,46.7-25.8
			c23-6.7,51.9-1.3,68.8,4.3c17.2,5.7,38.5,8.7,48.4-5.9c13.9-20.6,55.5-23.9,74.2,9.7c6.8,12.2,12.9,21.8,27.4,20.8
			C456.4,104.3,443.3,175.2,453.2,193.1z M238.9,79.8c0,2.8,0,7.6,12.4,6.8c3.8-0.2,6.9-2.3,6.9-5.1c0-2.8-3.1-5.1-6.9-5.1
			C247.5,76.5,238.9,75.3,238.9,79.8z M116.8,93.5c-0.4,0.2-0.6,0.6-0.8,1c-0.8,1.2-2.2,2-3.6,2.6c-0.8,0.3-1.7,0.6-2.3,1.2
			c-1,1-0.9,2.8,0.2,3.6c0.9,0.7,2.1,0.8,3.3,0.7c4.3-0.2,8.5-1.8,11.9-4.4C129.8,94.7,119.2,92.2,116.8,93.5z M105,99.9
			c-1.5-1-3.3-0.4-4.8,0.3c-0.3,0.2-0.6,0.4-0.7,0.7c-0.2,0.7,0.7,1.2,1.4,1.4c1.1,0.3,2.3,0.7,3.4,0.3
			C105.4,102.3,106.5,100.9,105,99.9z M50.2,189.6c-1.1-3.3-3.6-4.9-7.5-3c-2.3,1.1-3.9,3.2-5.3,5.3c-2.2,3.4-4.1,7.2-3.6,11.1
			c0.3,2.9,2,5.6,4.4,7.3c1,0.7,2.2,1.2,3.4,1.2c1.4,0,2.6-0.8,3.7-1.6c2.5-1.9,4.4-4.5,6.3-6.9c1-1.3,2-2.7,2.2-4.2
			C54.3,195.3,51.2,192.6,50.2,189.6z M452.2,290.6c-1,0.4-2,0.9-2.5,1.8c-0.4,0.7-0.6,1.5-0.6,2.3c-0.2,1.7-0.3,3.3-0.3,5
			c0,1.8,0.2,3.8,1.6,5.1c1.9,1.7,4.9,1.1,7.3,0.4c1.4-0.4,2.9-0.8,3.8-1.9c0.7-0.8,0.9-1.8,1.1-2.8c0.6-3.3,2.4-8.3,0.4-10.1
			C460.8,288.6,455.7,289.2,452.2,290.6z M313.3,419c-0.5,0.5-1,1-1.3,1.6c-0.8,1.7,0,3.9,1.8,4.6c0.9,0.4,1.9,0.4,2.9,0.3
			c8.3-0.1,17.2-0.4,23.8-5.2c0.8-0.6,1.6-1.4,1.5-2.3c-0.2-1.2-1.6-1.7-2.8-1.9C330.9,414.6,319.9,412.8,313.3,419z M156.3,406.2
			c-7.2-1-18.6-2.3-18.6,3.5c0,2.2,10.2,4.3,11.8,4.7c5.2,1.3,10.1,3.1,15.1,5c9.4,3.5,17-1.2,9.5-6.5
			C168,408.6,162.1,407,156.3,406.2z"/>
	</g>
</g>
<g id="OBJECTS">
	<g>
		<g>
			<g>
				<path class="st2" d="M392.7,268.7c0,0,16.7-1.5,32.6-8c0.5-0.2,0.8,3.2,0.8,3.2s2.3-4.6,3.1-4.9c8.6-4,16.4-9.7,20.6-17.5
					c0,0,2.1,47.8-59.4,58.4L392.7,268.7z"/>
			</g>
			<g>
				<path class="st2" d="M413.1,323.3c0,0,20.3,10.8,60,12.6c0,0-27,24.6-88.7,16.2l2-28.1L413.1,323.3z"/>
			</g>
			<g>
				<path class="st3" d="M384.7,296c0,0,9.2-5.9,24-10.9c0.6-0.2,1.8,3.3,1.8,3.3s2-4.6,3.1-4.9c17.8-5.3,42.1-8.8,68.2-1.4
					c0,0-7.9,11-24.2,23.1c-0.7,0.5-5.3,0.1-5.3,0.1s1.9,2.3,1.3,2.8c-15.4,10.7-37.3,21.6-65.8,26L384.7,296z"/>
			</g>
			<g class="st4">
				<g>
					<path class="st2" d="M481.9,282.1c-7.7,4.9-15.7,9.2-23.9,13.2c-8.2,4-16.6,7.5-25.1,10.7c-4.3,1.6-8.6,3-12.9,4.5l-6.6,2
						c-1.1,0.3-2.2,0.7-3.3,1l-3.3,0.8c-8.8,2.4-17.8,4-26.8,5.3l6.7-1.4l3.3-0.7c1.1-0.2,2.2-0.5,3.3-0.8l6.6-1.6l6.6-1.8
						c4.4-1.2,8.7-2.6,13-3.9c4.3-1.5,8.6-2.9,12.8-4.6c8.5-3.1,16.9-6.6,25.2-10.4c4.1-1.9,8.2-3.9,12.3-5.9
						C473.9,286.5,478,284.3,481.9,282.1z"/>
				</g>
				<g>
					<path class="st2" d="M426.4,307.7c1.7-1.6,3.3-3.2,5-4.8c1.6-1.6,3.2-3.2,4.8-4.9c1.6-1.7,3-3.4,4.5-5.2c1.4-1.8,2.7-3.7,4-5.6
						c-0.8,2.2-1.9,4.3-3.2,6.2c-1.3,1.9-2.7,3.8-4.3,5.5C434,302.3,430.4,305.4,426.4,307.7z"/>
				</g>
				<g>
					<path class="st2" d="M401.8,315.1c1.8-1.2,3.5-2.6,5.1-4c1.6-1.4,3.1-3,4.4-4.6c1.4-1.6,2.6-3.4,3.7-5.2c1.1-1.8,2-3.8,2.9-5.8
						c-0.4,2.1-1,4.3-2,6.3c-0.9,2-2.2,3.9-3.6,5.6c-1.4,1.7-3,3.3-4.8,4.6C405.9,313.2,403.9,314.4,401.8,315.1z"/>
				</g>
				<g>
					<path class="st2" d="M426.4,307.7c3.2,0.1,6.3,0.2,9.4,0c1.6-0.1,3.1-0.3,4.6-0.5c1.6-0.2,3.1-0.6,4.7-0.8
						c-1.4,0.8-2.9,1.5-4.4,1.9c-1.6,0.4-3.2,0.7-4.8,0.8c-1.6,0.1-3.2,0.1-4.8-0.1C429.5,308.7,427.9,308.3,426.4,307.7z"/>
				</g>
				<g>
					<path class="st2" d="M402.3,315.1c1.9,0.2,3.8,0.4,5.7,0.6c1.9,0.2,3.8,0.3,5.6,0.4c1.9,0.1,3.8,0.1,5.6,0
						c1.9-0.1,3.8-0.3,5.7-0.6c-1.8,0.8-3.6,1.3-5.6,1.6c-1.9,0.3-3.9,0.3-5.8,0.3C409.8,317.3,405.9,316.6,402.3,315.1z"/>
				</g>
			</g>
			<g class="st5">
				<g>
					<path class="st6" d="M443.5,253.9c-1.6,4.5-4.5,8.4-7.8,11.9c-3.3,3.5-7.2,6.4-11.3,8.8l-3.2,1.7c-1.1,0.6-2.2,1-3.3,1.5
						c-2.2,1-4.5,1.7-6.7,2.4c-1.1,0.4-2.3,0.6-3.5,0.9l-3.5,0.8c-2.4,0.4-4.7,0.7-7.1,1c2.3-0.6,4.6-1.1,6.9-1.6l3.4-1
						c1.1-0.3,2.3-0.6,3.4-1.1c2.2-0.9,4.4-1.6,6.6-2.6c1.1-0.5,2.2-0.9,3.2-1.5l3.1-1.7c4-2.4,7.9-5.2,11.2-8.4
						c0.8-0.8,1.7-1.6,2.5-2.5c0.4-0.4,0.8-0.9,1.2-1.3l1.1-1.4C441.1,258,442.4,256.1,443.5,253.9z"/>
				</g>
			</g>
			<g>
				<g>
					<path class="st7" d="M460.1,339.3c-2.8,0.5-5.6,0.9-8.4,1.2c-2.8,0.3-5.6,0.5-8.5,0.6c-5.7,0.3-11.3,0.1-17-0.2
						c-2.8-0.2-5.7-0.6-8.5-1c-2.8-0.4-5.6-0.9-8.4-1.7c-5.5-1.4-10.9-3.4-15.7-6.4c2.6,1.2,5.2,2.3,7.8,3.2
						c2.7,0.9,5.4,1.6,8.1,2.2c5.5,1.2,11.1,2,16.7,2.4c5.6,0.5,11.2,0.6,16.9,0.5C448.8,340,454.5,339.8,460.1,339.3z"/>
				</g>
				<g>
					<path class="st7" d="M433.5,349.2c-3.7,0.3-7.5-0.5-10.9-2.1c-1.7-0.9-3.2-2-4.5-3.4c-1.3-1.4-2.2-3.1-2.8-4.8
						c1.1,1.5,2.2,2.9,3.5,4.1c1.4,1.1,2.8,2.1,4.4,2.9c1.6,0.8,3.3,1.4,5,2C429.9,348.4,431.7,348.8,433.5,349.2z"/>
				</g>
				<g>
					<path class="st7" d="M418.7,350.1c-3.7-0.5-7.2-2.1-10.1-4.4c-1.5-1.2-2.7-2.6-3.7-4.3c-1-1.6-1.5-3.5-1.7-5.3
						c0.7,1.7,1.5,3.3,2.5,4.8c1.1,1.4,2.3,2.7,3.7,3.8c1.4,1.1,2.9,2.1,4.4,3C415.4,348.5,417,349.3,418.7,350.1z"/>
				</g>
			</g>
		</g>
		<g>
			<path class="st8" d="M256.6,390.5c-6.2-7.1-15.6-11.3-25-11.2c-7,0.1-13.8,2.4-20.7,2c-7.3-0.4-14.3-4.1-19-9.7
				c-4.6-5.7-6.7-13.3-5.7-20.5c0.8-5.5,3.7-11,8.7-13.5c2.7-1.3,5.8-1.7,8.9-1.4c2.8,0.3,5.4,1,8,2.1c5.8,2.6,10.8,7.1,14.8,12
				c3.6,4.5,11.9,11.2,17.5,15.5c3.3,2.5,5.7,4.2,5.7,4.2C253.7,373.6,253.9,385.8,256.6,390.5z"/>
			<path class="st9" d="M195.6,353c17.5,5,36.8,12,50.4,24"/>
		</g>
		<g>
			<path class="st3" d="M308.3,350.5c-0.3,2.9-0.9,5.9-2.3,8.5c-1,1.8-2.3,3.4-3.8,4.8c-0.8,0.7-1.6,1.4-2.4,2.1
				c-3.2,2.5-6.9,4.4-10.6,5.6c-5.5,1.7-11.3,2.1-16.3,5.1c-2.3,1.4-4.3,3.4-5.9,5.7c-1,1.4-1.8,3-2.3,4.6l0-4.9
				c0.5-5.4,1.1-10.9,3.1-16.1c1.3-3.4,3.2-6.5,5.2-9.5c3.3-4.8,7.1-9.2,11.4-12.9c3.5-3,7.6-5.5,11.9-6.1c4.3-0.6,8.9,0.9,10.9,4.7
				C308.5,344.6,308.6,347.6,308.3,350.5z"/>
			<path class="st10" d="M267.7,377.4c3.1-7.3,8.4-13.7,14.9-17.9c4-2.7,8.5-4.5,12.6-6.9c4.1-2.5,8.1-5.9,10-10.4"/>
		</g>
		<g>
			<path class="st8" d="M261,381.9c7.7-7.6,18.6-11.1,29.3-12.7c8.9-1.3,18.3-1.3,26.7,2.1c2.6,1.1,5.2,2.6,6.8,4.9
				c1.6,2.4,1.8,5.8-0.1,7.9c-1.6,1.8-4.2,2.2-6.6,2.3c-7.9,0.3-15.5-2-23.2-3.6c-13.2-2.8-27.6-3.4-39.6,2.7"/>
			<path class="st9" d="M270.5,377.9c15.9-6.7,38.9-4.5,48.9,2.4"/>
		</g>
		<g>
			<path class="st11" d="M82.3,299.8c-7.2-3.5-10.6-12.7-16.5-14.6c-7.3-2.5-9.4,5.6-21.2,3.6c-9.9-1.7-13-12.9-29.6-9.4
				c-5.1,1.1-8.4,5.3-6.5,10.5c1.4,5.1,8.5,8.4,12.7,11c3.7,2.1,7,3.2,9.2,7.1c0,0,0,0.1,0.1,0.1c1.5,3.2,0.9,6,4.4,8.3
				c8.1,5.9,18.2-3.5,27.4-3.2c6.5,0.2,6.3,7,14.2,8.9c7.8,1.9,5.2-5,21.5,1.3c0.6,0.2,1.2-0.1,1.5-0.7l0,0c0.2-0.4,0.1-0.9-0.2-1.2
				C87.7,309.7,92.9,304.9,82.3,299.8z"/>
			<path class="st12" d="M82.3,299.8c-7.2-3.5-10.6-12.7-16.5-14.6c-7.3-2.5-9.4,5.6-21.2,3.6c-9.9-1.7-13-12.9-29.6-9.4
				c-5.1,1.1-8.4,5.3-6.5,10.5c1.4,5.1,8.5,8.4,12.7,11c3.7,2.1,7,3.2,9.2,7.1c0,0,0,0.1,0.1,0.1c1.5,3.2,0.9,6,4.4,8.3
				c8.1,5.9,18.2-3.5,27.4-3.2c6.5,0.2,6.3,7,14.2,8.9c7.8,1.9,5.2-5,21.5,1.3c0.6,0.2,1.2-0.1,1.5-0.7l0,0c0.2-0.4,0.1-0.9-0.2-1.2
				C87.7,309.7,92.9,304.9,82.3,299.8z"/>
			<g class="st13">
				<g>
					<path class="st7" d="M91.5,315.3c-6.2-3.2-9.8-9.9-16.3-12.6c-1.5-0.6-3-0.9-4.6-0.9c-2.3,0.1-4.5,1-6.8,0.7
						c-3.3-0.3-5.3-3.2-8.2-4.4c-3.3-1.4-6.7,0.7-10.1-0.1c-3.5-0.8-6.3-3.4-9.1-5.5c-5.7-4.4-12.2-6.9-19.5-6.9c-0.4,0-0.2,1,0.2,1
						c8,0,14.5,3.2,20.7,8c2.3,1.8,4.8,3.7,7.7,4.4c3.5,0.8,7-1.3,10.4,0.2c2.6,1.2,4.6,3.7,7.5,4.2c3.6,0.6,7-1.3,10.7-0.2
						c7.1,2.2,10.8,9.6,17.2,12.9C91.9,316.5,91.8,315.5,91.5,315.3L91.5,315.3z"/>
				</g>
			</g>
		</g>
		<g>
			<path class="st14" d="M152.3,348.1c-23.7,2.5-27.4,4.5-33.1,2.1c-7.2-3.1-14.8-2.3-22.1-5.3c-7.3-3-15.2-5.3-23-4
				c-2.5,0.4-5.2,1.4-5.5,4.3c-0.1,1.2,0.2,2.3,0.9,3.3c1.7,2.4,4.5,3.2,7.2,3.9l8.9,2.5c2.9,0.8,2.7,5.1-0.3,5.5c0,0-0.1,0-0.1,0
				c-2.5,0.3-5-0.2-7.5-0.7c-5.4-1.2-10.8-2.6-16.3-2.6c-6.7,0-13.7,2.4-17,8.6c-1.2,2.2-1.6,4.8-1.2,7.2c1.2,6.9,7.6,9.2,13.3,8.6
				c4-0.4,7.8-1.9,11.6-3.3c9.2-3.3,17.1,0.3,27,0.6C122.2,379.5,152.3,348.1,152.3,348.1z"/>
			<path class="st9" d="M50.7,369.8c16.8-1.9,33.8-3.9,50-9c4.7-1.5,10.8-1.9,24.2-11.8"/>
		</g>
		<g>
			<path class="st14" d="M78,272.1c0.6,0.4,1.1,0.8,1.8,1.1c2.9,1.4,6.2,1.6,8.5,4.2c1.5,1.6,2.4,3.8,3.5,5.8
				c0.2,0.4,0.5,0.8,0.8,1.2c3.6,4.9,7.1,5.4,10.8,5.4c1.5,0,3.1-0.2,4.8-0.2c2.5,0,5.2,0.3,8,1.9c1.8,1,3.7,2.5,5.7,4.6
				c0.4,0.4,1,0.4,1.5,0.1c0.5-0.3,0.7-0.8,0.6-1.3c-1-4.5-3-7.5-5.3-9.7c-6.6-6.3-16.4-6.8-17-19.7c-0.1-2.8,0.5-4.7,0-6.7
				c-0.2-1-0.7-2-1.7-3.1c-2-2.2-4.9-3.1-7.5-4.8c-7-5-3.6-13.1-4.3-20.8c-0.4-6.3-6.1-10.4-10.7-14c-5.8-4.3-5.8-11.9-9.7-17.7
				c-3.9-5.7-13.6-8-18.8-0.3c-5.5,7.7-2.5,17.3-0.9,25c0.4,2,1.1,3.8,2.1,5.5c2.9,5,7.9,8.6,12.1,12.9c2.6,2.6,4.8,5.6,6.4,9
				c0.9,2,1.6,4,2,6.3c0.1,0.5,0.2,1,0.3,1.5C72,263.7,73.2,268.5,78,272.1z"/>
			<g class="st13">
				<g>
					<path class="st7" d="M53.3,198.2c0.3,7.1,0.8,14.5,6.1,19.7c2.5,2.5,5.5,4.4,7.8,7c1.6,1.8,2.5,3.8,3.1,6.1
						c0.4,1.3,0.6,2.7,1.4,3.8c0.9,1.3,2.3,2,3.6,2.8c1.8,1.1,3.1,2.6,4.2,4.5c1.6,2.8,2.4,6,3.9,8.9c0.6,1.3,1.3,2.5,2.2,3.6
						c1.4,1.7,3.6,2.8,4.5,4.8c1.6,3.5,0.9,7.7,2.5,11.3c3.7,8.4,12.4,12.6,20.2,16.3c0.5,0.2,0.4-0.7,0.1-0.9
						c-7.6-3.6-16.2-7.6-19.8-15.8c-1.5-3.3-1.1-6.9-2.1-10.3c-1-3.3-4.2-4.6-6-7.3c-3.1-4.6-3.6-10.9-7.9-14.7
						c-1.4-1.3-3.4-1.9-4.7-3.3c-1.5-1.7-1.5-4.3-2.3-6.3c-1-2.6-3-4.7-5.1-6.5c-3.1-2.7-6.5-5.1-8.5-8.8c-2.3-4.5-2.4-9.7-2.6-14.6
						C53.9,197.8,53.3,197.5,53.3,198.2L53.3,198.2z"/>
				</g>
			</g>
			<path class="st15" d="M108.1,289.6c2.5,0,5.2,0.3,8,1.9c0.3-4,1.6-4.8,2.5-6.3c-6.6-6.3-16.4-6.8-17-19.7c-0.1-2.8,0.5-4.7,0-6.7
				c-2,4.2-5.5,5-5.2,9.2c0.2,4.4,5.8,8.4,6.8,13.9C104,286.5,105.7,287.7,108.1,289.6z"/>
		</g>
		<g>
			<path class="st2" d="M172.2,354.8c-4.5-1.8-10.4-2.5-13.3,1.4c-2.4,3.2-1.2,7.8,0.5,11.5c1.4,3.1,3.2,6.2,6.1,7.9
				c2,1.1,4.4,1.5,6.7,1.8c6.4,0.8,12.9,1.1,19.4,1.1c7.5,0,16.6,3,22.8,7.7C206.4,371.4,187.3,360.8,172.2,354.8z"/>
			<path class="st10" d="M164.4,364.4c5.7,0.2,11.4,0.6,16.9,2.3c5.6,1.7,27.1,11.5,30.4,15.7"/>
		</g>
		<g>
			<path class="st14" d="M390.6,244.7c-0.1,0.7-0.2,1.3-0.2,2c0,3.1,1.2,6,0,9.1c-0.7,2-2.3,3.7-3.4,5.5c-0.3,0.4-0.5,0.8-0.7,1.2
				c-2.7,5.1-1.7,8.4,0,11.5c0.7,1.3,1.5,2.6,2.2,4c1.1,2.1,1.9,4.6,1.8,7.7c-0.1,2-0.5,4.2-1.5,6.9c-0.2,0.5,0.1,1,0.6,1.3
				c0.5,0.3,1,0.2,1.4-0.1c3.4-2.8,5.1-5.7,6-8.7c2.6-8.3-1.2-16.9,9.7-23c2.3-1.3,4.3-1.6,5.8-2.8c0.8-0.6,1.4-1.5,1.9-2.8
				c1-2.6,0.6-5.5,1-8.4c1.3-8.1,9.6-8.7,16-12.5c5.2-3,6.3-9.6,7.4-15.1c1.2-6.8,7.8-10,11-15.8c3.2-5.8,1.1-15.1-7.7-16.2
				c-8.9-1.4-15.8,5.2-21.8,9.9c-1.6,1.2-2.8,2.6-3.8,4.1c-3.1,4.6-4.1,10.4-5.9,15.9c-1.1,3.4-2.7,6.5-5,9.3
				c-1.3,1.6-2.8,3.1-4.5,4.4c-0.4,0.3-0.8,0.6-1.2,0.9C395.3,236.1,391.7,239.1,390.6,244.7z"/>
			<g class="st13">
				<g>
					<path class="st7" d="M443.3,192c-6.1,3.4-12.1,7-14.2,14c-1,3.2-1.4,6.6-2.7,9.7c-0.9,2-2.2,3.4-3.8,4.8
						c-1.1,1-2.2,1.9-2.8,3.3c-0.7,1.6-0.4,3.4-0.8,5.1c-0.4,1.8-1.3,3.5-2.4,5c-1.9,2.5-4.3,4.7-6.1,7.3c-2,2.9-1.8,7-4.5,9.4
						c-2.4,2.2-5.5,3.4-7.6,5.9c-5.7,6.7-5.6,16.1-5.4,24.4c0,0.5,0.6,0.8,0.6,0.1c-0.2-8.3-0.4-17.8,5.7-24.3
						c2.2-2.4,5.4-3.5,7.6-5.8c2.2-2.3,2-5.8,3.7-8.4c2.9-4.7,8.3-8,9.2-13.8c0.4-2.6,0.4-4.6,2.4-6.6c1.1-1,2.3-1.9,3.2-3
						c1.9-2.4,2.6-5.4,3.3-8.2c1-4,2-7.9,4.9-11c2.9-3,6.6-5,10.2-7C444,192.7,443.7,191.8,443.3,192L443.3,192z"/>
				</g>
			</g>
		</g>
		<g>
			<path class="st11" d="M364.8,368.2c6.8,3.8,9.6,13.1,15.2,15.4c7,2.9,9.5-4.9,21-2.2c9.6,2.3,11.8,13.4,28.3,11.1
				c5-0.7,8.6-4.7,7.1-9.8c-1.1-5.1-7.7-8.7-11.7-11.5c-3.5-2.3-6.6-3.6-8.6-7.6c0,0,0-0.1-0.1-0.1c-1.2-3.2-0.5-5.9-3.7-8.4
				c-7.6-6.3-18,2.2-27,1.4c-6.4-0.6-5.7-7.2-13.3-9.6c-7.5-2.4-5.4,4.6-20.9-2.7c-0.6-0.3-1.2,0-1.5,0.5l0,0
				c-0.2,0.4-0.1,0.8,0.2,1.2C360.2,358.2,354.7,362.5,364.8,368.2z"/>
			<path class="st12" d="M364.8,368.2c6.8,3.8,9.6,13.1,15.2,15.4c7,2.9,9.5-4.9,21-2.2c9.6,2.3,11.8,13.4,28.3,11.1
				c5-0.7,8.6-4.7,7.1-9.8c-1.1-5.1-7.7-8.7-11.7-11.5c-3.5-2.3-6.6-3.6-8.6-7.6c0,0,0-0.1-0.1-0.1c-1.2-3.2-0.5-5.9-3.7-8.4
				c-7.6-6.3-18,2.2-27,1.4c-6.4-0.6-5.7-7.2-13.3-9.6c-7.5-2.4-5.4,4.6-20.9-2.7c-0.6-0.3-1.2,0-1.5,0.5l0,0
				c-0.2,0.4-0.1,0.8,0.2,1.2C360.2,358.2,354.7,362.5,364.8,368.2z"/>
			<g class="st13">
				<g>
					<path class="st7" d="M356.8,352.4c6,3.6,9.2,10.9,15.8,13.7c3.6,1.5,6.8-0.1,10.4,0.6c3.3,0.6,5.1,3.6,8,4.9
						c3.1,1.4,6.5-0.4,9.7,0.6c3.4,1.1,6.1,3.9,8.7,6.2c5.2,4.6,11.4,7.4,18.4,7.8c0.5,0,0.3-1-0.1-1c-7.9-0.5-14-4-19.7-9.1
						c-2-1.8-4.1-3.6-6.7-4.6c-3.5-1.4-7.4,0.7-10.8-1.1c-2.4-1.3-4-3.7-6.7-4.5c-3.5-1-7,0.7-10.5-0.5c-7-2.4-10.2-10.2-16.4-13.9
						C356.5,351.3,356.5,352.2,356.8,352.4L356.8,352.4z"/>
				</g>
			</g>
		</g>
		<g>
			<g>
				<path class="st2" d="M121.5,349.5c0,0-29.7-6.5-52.5-4.1c-0.7,0.1,0.2-4.4,0.2-4.4s-4.7,5-5.9,5.2c-12.6,2-24.8,6.3-33.1,14.8
					c0,0,15.2-62.4,98.4-53.1L121.5,349.5z"/>
			</g>
			<g>
				<path class="st3" d="M138.7,352.9c0,0-13.3-6-29.9-18.9c-0.7-0.5,2.3-4.5,2.3-4.5s-6.6,1.1-7.8,0.1c-19-16-40.8-40.7-51.8-75.5
					c0,0,18.2,0.8,43.7,10.1c1.1,0.4,4,5.8,4,5.8s1.2-3.9,2.1-3.5c23.4,9.4,51.7,25.9,77.6,54.8L138.7,352.9z"/>
			</g>
			<g class="st4">
				<g>
					<path class="st2" d="M51.6,254.8c11.2,5,21.9,10.8,32.4,17.1c10.5,6.2,20.7,13.1,30.5,20.3c5,3.6,9.7,7.5,14.5,11.2l7,5.9
						c1.2,1,2.4,2,3.5,3l3.4,3.1c9.2,8.1,17.6,17,25.6,26.2l-6.5-6.5l-3.2-3.3c-1.1-1.1-2.2-2.1-3.3-3.1l-6.6-6.3l-6.9-6
						c-4.5-4.1-9.3-7.8-14-11.7c-4.8-3.7-9.6-7.5-14.6-11.1c-9.8-7.3-19.9-14.1-30.2-20.6c-5.2-3.2-10.4-6.4-15.7-9.4
						C62.4,260.6,57,257.6,51.6,254.8z"/>
				</g>
				<g>
					<path class="st2" d="M121.2,298.3c-3-0.7-6-1.4-9-2.1c-3-0.6-6-1.2-9-1.7c-3-0.5-6.1-0.9-9.1-1.2c-3.1-0.2-6.1-0.4-9.2-0.4
						c3-0.7,6.2-1,9.3-1c3.1,0,6.3,0.3,9.3,0.8C109.6,293.8,115.6,295.5,121.2,298.3z"/>
				</g>
				<g>
					<path class="st2" d="M92,278.3c-2.2-0.1-4.3-0.2-6.4-0.3c-2.1-0.1-4.3-0.1-6.4-0.1c-2.1,0-4.2,0.2-6.4,0.3
						c-2.1,0.2-4.2,0.5-6.3,0.9c2-0.8,4.1-1.5,6.2-1.8c2.1-0.4,4.3-0.6,6.5-0.6C83.5,276.7,87.8,277.1,92,278.3z"/>
				</g>
				<g>
					<path class="st2" d="M147.6,320.4c-2.7-1.2-5.5-2.1-8.2-2.8c-2.8-0.7-5.6-1.3-8.5-1.6c-2.8-0.3-5.7-0.4-8.6-0.3
						c-2.9,0.1-5.7,0.5-8.7,1c2.7-1.1,5.6-2,8.5-2.3c2.9-0.5,6-0.4,8.9-0.1c3,0.3,5.9,1,8.7,2C142.5,317.3,145.2,318.6,147.6,320.4z
						"/>
				</g>
				<g>
					<path class="st2" d="M121.2,298.3c-2.2-3.7-4.4-7.2-7-10.5c-1.2-1.7-2.6-3.3-4-4.8c-1.4-1.6-2.9-3-4.4-4.6
						c1.9,1,3.7,2.2,5.3,3.6c1.6,1.4,3.1,3,4.4,4.8c1.3,1.7,2.5,3.6,3.4,5.5C120,294.1,120.8,296.2,121.2,298.3z"/>
				</g>
				<g>
					<path class="st2" d="M147.2,319.8c-1.1-2.3-2.3-4.6-3.5-6.8c-1.2-2.2-2.4-4.5-3.7-6.6c-1.3-2.2-2.7-4.3-4.1-6.4
						c-1.5-2-3.1-4-4.8-5.9c2.2,1.4,4.2,3.1,5.9,5.1c1.7,2,3.2,4.1,4.6,6.3C144.2,309.9,146.2,314.8,147.2,319.8z"/>
				</g>
			</g>
			<g class="st13">
				<g>
					<path class="st7" d="M42.8,347.4c3.8-5.2,9-9.2,14.5-12.4c5.6-3.3,11.6-5.5,17.9-7.2l4.7-1c1.6-0.3,3.2-0.5,4.8-0.7
						c3.2-0.5,6.4-0.5,9.6-0.6c1.6-0.1,3.2,0.1,4.8,0.1l4.8,0.2c3.2,0.4,6.3,0.8,9.5,1.3c-3.2-0.1-6.4-0.4-9.5-0.5l-4.8,0
						c-1.6,0-3.2-0.1-4.7,0.1c-3.2,0.3-6.3,0.3-9.4,0.9c-1.6,0.3-3.1,0.4-4.7,0.7l-4.6,1c-6.1,1.5-12,3.7-17.6,6.6
						c-1.4,0.7-2.8,1.5-4.1,2.3c-0.7,0.4-1.3,0.8-2,1.3l-1.9,1.4C47.4,343,45,345,42.8,347.4z"/>
				</g>
			</g>
			<g class="st13">
				<g>
					<path class="st7" d="M94.2,326.3c-1.7,2.8-3.4,5.4-4.8,8.1c-0.7,1.4-1.3,2.8-1.9,4.2c-0.5,1.5-0.9,3-1.3,4.6
						c-0.8-3.2,0.1-6.7,1.6-9.6c0.8-1.5,1.7-2.8,2.8-4.1C91.6,328.3,92.8,327.1,94.2,326.3z"/>
				</g>
			</g>
		</g>
		<g>
			<rect x="225.3" y="346.3" class="st16" width="49.2" height="33.8"/>
			<rect x="225.3" y="346.3" class="st6" width="49.2" height="12.3"/>
			<path class="st16" d="M299.8,379.6H200c-3.2,0-5.7,2.6-5.7,5.7s2.6,5.7,5.7,5.7h99.8c3.2,0,5.7-2.6,5.7-5.7l0,0
				C305.5,382.1,303,379.6,299.8,379.6z"/>
			<path class="st6" d="M305.5,385.3c0,3.1-2.6,5.7-5.7,5.7H200c-3.2,0-5.7-2.6-5.7-5.7c0-0.5,0.1-0.9,0.2-1.4
				c0.6,2.5,2.9,4.3,5.5,4.3h99.8c2.7,0,4.9-1.8,5.5-4.3C305.5,384.4,305.5,384.8,305.5,385.3z"/>
			<g>
				<g>
					<g>
						<path class="st17" d="M96,351c-1.9,0-3.5-1.6-3.5-3.5V144.3c0-1.9,1.6-3.5,3.5-3.5h307.7c1.9,0,3.5,1.6,3.5,3.5v203.2
							c0,1.9-1.6,3.5-3.5,3.5H96z"/>
						<path class="st16" d="M403.8,143.3c0.6,0,1,0.4,1,1v203.2c0,0.6-0.4,1-1,1H96c-0.6,0-1-0.4-1-1V144.3c0-0.6,0.4-1,1-1H403.8
							 M403.8,138.3H96c-3.3,0-6,2.7-6,6v203.2c0,3.3,2.7,6,6,6h307.7c3.3,0,6-2.7,6-6V144.3C409.8,141,407.1,138.3,403.8,138.3
							L403.8,138.3z"/>
					</g>
				</g>
				<g>
					<path class="st16" d="M409.8,347.1v-19.9H90v19.9c0,3.7,3,6.8,6.8,6.8H403C406.7,353.9,409.8,350.8,409.8,347.1z"/>
				</g>
			</g>
			<g>
				<circle class="st1" cx="249.9" cy="184.2" r="24.6"/>
				<g>
					<defs>
						<circle id="SVGID_1_" cx="249.9" cy="184.2" r="24.6"/>
					</defs>
					<clipPath id="SVGID_2_">
						<use xlink:href="#SVGID_1_"  style="overflow:visible;"/>
					</clipPath>
					<path class="st18" d="M259.4,178.5c0,5.3-4.3,9.5-9.5,9.5c-5.3,0-9.5-4.3-9.5-9.5s4.3-9.5,9.5-9.5
						C255.2,169,259.4,173.3,259.4,178.5z M264.3,218.4v-16.6c0-6.3-5.1-11.5-11.5-11.5H247c-6.3,0-11.5,5.1-11.5,11.5v16.6
						c0,1.8,1.4,3.2,3.2,3.2h22.4C262.9,221.6,264.3,220.2,264.3,218.4z"/>
				</g>
			</g>
			<path class="st1" d="M308.9,236.8H190.9c-5.4,0-9.8-4.4-9.8-9.8l0,0c0-5.4,4.4-9.8,9.8-9.8h117.9c5.4,0,9.8,4.4,9.8,9.8l0,0
				C318.6,232.5,314.3,236.8,308.9,236.8z"/>
			<path class="st2" d="M304.8,229.6H195c-1.4,0-2.5-1.1-2.5-2.5l0,0c0-1.4,1.1-2.5,2.5-2.5h109.7c1.4,0,2.5,1.1,2.5,2.5l0,0
				C307.3,228.5,306.2,229.6,304.8,229.6z"/>
			<path class="st1" d="M309,271.9H191c-5.4,0-9.8-4.4-9.8-9.8l0,0c0-5.4,4.4-9.8,9.8-9.8H309c5.4,0,9.8,4.4,9.8,9.8l0,0
				C318.7,267.6,314.4,271.9,309,271.9z"/>
			<path class="st2" d="M194,264.9L194,264.9c-1.4,0-2.5-1.1-2.5-2.5l0,0c0-1.4,1.1-2.5,2.5-2.5l0,0c1.4,0,2.5,1.1,2.5,2.5l0,0
				C196.6,263.7,195.5,264.9,194,264.9z M204.2,262.3L204.2,262.3c0-1.4-1.1-2.5-2.5-2.5l0,0c-1.4,0-2.5,1.1-2.5,2.5l0,0
				c0,1.4,1.1,2.5,2.5,2.5l0,0C203,264.9,204.2,263.7,204.2,262.3z M211.7,262.3L211.7,262.3c0-1.4-1.1-2.5-2.5-2.5l0,0
				c-1.4,0-2.5,1.1-2.5,2.5l0,0c0,1.4,1.1,2.5,2.5,2.5l0,0C210.6,264.9,211.7,263.7,211.7,262.3z M219.3,262.3L219.3,262.3
				c0-1.4-1.1-2.5-2.5-2.5l0,0c-1.4,0-2.5,1.1-2.5,2.5l0,0c0,1.4,1.1,2.5,2.5,2.5l0,0C218.2,264.9,219.3,263.7,219.3,262.3z
				 M226.9,262.3L226.9,262.3c0-1.4-1.1-2.5-2.5-2.5l0,0c-1.4,0-2.5,1.1-2.5,2.5l0,0c0,1.4,1.1,2.5,2.5,2.5l0,0
				C225.7,264.9,226.9,263.7,226.9,262.3z M234.5,262.3L234.5,262.3c0-1.4-1.1-2.5-2.5-2.5l0,0c-1.4,0-2.5,1.1-2.5,2.5l0,0
				c0,1.4,1.1,2.5,2.5,2.5l0,0C233.3,264.9,234.5,263.7,234.5,262.3z M242,262.3L242,262.3c0-1.4-1.1-2.5-2.5-2.5l0,0
				c-1.4,0-2.5,1.1-2.5,2.5l0,0c0,1.4,1.1,2.5,2.5,2.5l0,0C240.9,264.9,242,263.7,242,262.3z"/>
			<path class="st2" d="M266.7,308.7h-33.5c-5.4,0-9.8-4.4-9.8-9.8l0,0c0-5.4,4.4-9.8,9.8-9.8h33.5c5.4,0,9.8,4.4,9.8,9.8l0,0
				C276.4,304.3,272,308.7,266.7,308.7z"/>
		</g>
		<path class="st19" d="M373.6,353.3v-11.1c0-3.7-3-6.6-6.6-6.6h-0.6v-10.3c0-15.2-12.4-27.5-27.5-27.5c-15.2,0-27.5,12.4-27.5,27.5
			v10.3h-0.6c-3.7,0-6.6,3-6.6,6.6v11.1H373.6z M320.4,325.2c0-10.2,8.3-18.4,18.4-18.4c10.2,0,18.4,8.3,18.4,18.4v10.3h-36.9V325.2
			z"/>
		<path class="st19" d="M386.6,248.9c-2.7-2.2-6-3.6-10-3.9c0-0.4,0-0.7,0-1.2c2-0.3,3.8-2.1,4.8-4.5c2.7-2.6,4.6-5.9,3.7-10.1
			c-0.1-0.2,0-0.4,0.1-0.6c-1.2-2.1-3.4-3.1-5.8-5.3c-8.1-7.4-17.8,2.9-14.1,7.1c0.3,0.3,0.7,1.2,1,2.3c0,0,0,0,0,0.1
			c-0.2,0.8,0,2.1,0.6,2.8c0,0.4,0.1,0.8,0.1,1.2c0,0,0,0.1,0,0.1c0.1,0.6,0.4,1.2,0.7,1.7c0.5,2,1.7,4,4.1,4.9
			c0.2,0.1,0.4,0.1,0.6,0.2c0.1,0.6,0.2,0.9,0.1,1.3c-2.4,0.3-4.6,1-6.5,2.2c-15.5,7.5-30.9,31.7-29.2,37.1c1.7,5.3,6,11.6,8.9,15.8
			l0.5-0.1c0.2,0.8,0.5,1.6,0.7,2.4c0.1,0.4,0.2,0.8,0.6,1.1c0.4,0.4,1,0.4,1.6,0.3c0.7,0,1.4-0.1,1.9-0.6c0.3-0.3,0.5-0.6,0.6-1
			c0.3-1,0-2.2-0.5-3.1l0.3-0.1c0,0-6.7-10-6.5-16.1c0.1-2.2,5.3-7.5,9.6-11.4c-0.1,1.4-0.2,2.7-0.2,4.2l-2,48.7
			c0,0,1.8,0.3,4.6,0.8l2.7,29.1h11l0.3-27.4c0.1,0,0.3,0,0.4,0c0.1,0,0.3,0,0.4,0c0.5,0,1.1,0.1,1.6,0.1c0.2,0,0.4,0,0.6,0
			c0.2,0,0.4,0,0.6,0l1.1,27.2h10.9l2.2-27.7c0,0,0,0,0,0c0.4-0.1,0.9-0.2,1.3-0.2c0.2,0,0.4-0.1,0.6-0.1c0.4-0.1,0.7-0.2,1.1-0.3
			c0.2,0,0.4-0.1,0.6-0.2c0.3-0.1,0.7-0.2,1-0.3c0.2-0.1,0.3-0.1,0.5-0.2c0.5-0.2,0.9-0.4,1.3-0.6l-0.2-52.7c0-1.1,0-2.2-0.1-3.3
			c0-0.1,0-0.2,0-0.2c-0.1-1-0.2-2-0.3-2.9c0-0.1,0-0.2,0-0.3c0-0.1,0-0.2,0-0.3c2.1,0.4,4.9,0.9,8.6,1.6c2.4,0.4,4.7,0.2,6.9-0.4
			v-10.7C400.6,256.4,390.5,251.2,386.6,248.9z"/>
		<g>
			<circle class="st20" cx="238.2" cy="261.4" r="16.9"/>
			<circle class="st21" cx="238.2" cy="261.4" r="9.2"/>
		</g>
		<g>
			<path class="st22" d="M331.9,297.7c-15.2,0-27.5,12.4-27.5,27.5v26.5h55.1v-26.5C359.5,310,347.1,297.7,331.9,297.7z
				 M313.5,342.6v-17.4c0-10.2,8.3-18.4,18.4-18.4c10.2,0,18.4,8.3,18.4,18.4v17.4H313.5z"/>
			<path class="st23" d="M331.9,303.1c-12.1,0-22,9.9-22,22v21.1h44v-21.1C353.9,313,344,303.1,331.9,303.1z M350.4,342.6h-36.9
				v-17.4c0-10.2,8.3-18.4,18.4-18.4c10.2,0,18.4,8.3,18.4,18.4V342.6z"/>
			<path class="st24" d="M359.9,391h-56c-3.7,0-6.8-3-6.8-6.8v-41.9c0-3.7,3-6.8,6.8-6.8h56c3.7,0,6.8,3,6.8,6.8v41.9
				C366.7,388,363.7,391,359.9,391z"/>
			<path class="st22" d="M342,359.4c0-5.6-4.5-10.1-10.1-10.1s-10.1,4.5-10.1,10.1c0,3.9,2.2,7.3,5.5,9v10.9h9.3v-10.9
				C339.8,366.7,342,363.3,342,359.4z"/>
			<path class="st25" d="M360,335.5h-16.7c-3.6,11.3-9.3,22.1-16.5,31.4c-6.7,8.7-17.3,19.8-29.3,19.6c0.9,2.6,3.4,4.4,6.3,4.4H360
				c3.7,0,6.6-3,6.6-6.6v-42.2C366.7,338.5,363.7,335.5,360,335.5z"/>
		</g>
		<g>
			<path class="st26" d="M338.6,297.7c0.4,1.5,0.9,3.1,1.3,4.6c0.1,0.4,0.2,0.8,0.6,1.1c0.4,0.4,1,0.4,1.6,0.3
				c0.7,0,1.4-0.1,1.9-0.6c0.3-0.3,0.5-0.6,0.6-1c0.3-1.1,0-2.3-0.6-3.3c-0.6-1-1.4-1.8-2.3-2.6"/>
			<path class="st26" d="M421,245c0.5-2.1,1.3-4.2,2.2-6.2c0.5,0.6,0.4,1.4,0.3,2.2c0.5-1.1,1.3-2.1,2.4-2.6
				c0.1-0.1,0.3-0.1,0.4-0.1c0.1,0.1,0.2,0.2,0.3,0.4c0.4,1.6,0.2,3.4-0.5,4.9s-2.1,2.7-3.7,3.3"/>
			<path class="st2" d="M376,387.3c3.9,0.9,7.1,2.1,8.9,3.7h-15l0.3-3.5L376,387.3z"/>
			<path class="st2" d="M357.6,387.3c-3.9,0.9-7.1,2.1-8.9,3.7h15l-0.3-3.5L357.6,387.3z"/>
			<g>
				<g>
					<path class="st27" d="M383.9,299.9l-7.1,88c0,0-2.5,0.6-3.3,0.6c-0.4,0-1.2-0.1-1.9-0.3c-0.8-0.2-1.5-0.3-1.5-0.3l-2.6-66.5
						H364l-0.6,66.5c0,0-1.8,0.5-3.6,0.5c-1.8,0-3.9-0.5-3.9-0.5l-8.5-90.2L383.9,299.9z"/>
				</g>
			</g>
			<g class="st28">
				<path class="st29" d="M370.3,299.1l-12.5-0.8c-0.2,16.2,2.3,74.1,2.5,90.1c1.6-0.1,3-0.5,3-0.5l0.6-66.5h3.3l2.6,66.5
					c0,0,0.7,0.2,1.5,0.3c0.2,0,0.5,0.1,0.7,0.1C372.3,370.3,370.6,306.5,370.3,299.1z"/>
			</g>
			<g>
				<path class="st30" d="M360.1,236.7c0,0,0,0.1,0,0.1c0.5,2.9,3.3,4.4,6.4,5.2c2.5,0.7,3.1,1,5.1-0.5c4.2-3,7.9-7,6.7-12.5
					c-0.1-0.2,0-0.4,0.1-0.6c-1.2-2.1-3.4-3.1-5.8-5.3c-8.1-7.4-17.8,2.9-14.1,7.1C359,231,360.1,234,360.1,236.7z"/>
			</g>
			<path class="st31" d="M387.8,271.9c0-16.7-6.9-27.1-20.2-27.1c-13.3,0-20.2,14-20.2,30.7l-2,48.7c0,0,30.9,6.1,42.7,0.4
				L387.8,271.9z"/>
			<path class="st32" d="M387.8,271.9c0-4.7-0.5-8.9-1.6-12.5c-1.2,18.2-2.8,66.7-29.9,66.5c10.1,1.3,24.5,2.2,31.7-1.3L387.8,271.9
				z"/>
			<path class="st26" d="M374.5,234.8c-0.5-3.3-3.4-6.6-7-4.9c-2.3,1.1-4.7,1.2-6.6,0.2c-0.1,0.6-0.1,1.6-0.2,2.5
				c-0.4-0.7-1.1-0.8-1.3,0.1c-0.2,1,0.1,2.8,1.1,3.1c0,0.2,0,0.3,0,0.5c0,2.5,1.1,6.4,5,7.3c0.2,0.9,0.1,1.2-0.1,2.3
				c0.2,0.8,3.3,1.3,4.4,0.4c-0.1-1.1-0.1-1.6-0.1-2.6c2.4-0.4,4.3-2.7,5.2-5.7C378.5,236,376,232.4,374.5,234.8z"/>
			<path class="st33" d="M374.5,234.8c-0.2-1.3-0.8-2.6-1.6-3.6c0.1,5.7-2.3,11-7.9,12.3c0.2,0.1,0.4,0.1,0.6,0.2
				c0.2,0.9,0.1,1.2-0.1,2.3c0.2,0.8,3.3,1.3,4.4,0.4c-0.1-1.1-0.1-1.6-0.1-2.6c2.4-0.4,4.3-2.7,5.2-5.7
				C378.5,236,376,232.4,374.5,234.8z"/>
			<path class="st31" d="M359.2,247.1c-15.5,7.5-30.9,31.7-29.2,37.1c1.7,5.3,6,11.6,8.9,15.8l5.6-1c0,0-6.7-10-6.5-16.1
				c0.2-3.8,15-16.2,15-16.2L359.2,247.1z"/>
			<path class="st31" d="M378.3,248c2.4,1.7,22.7,13.9,33.9,3.2c8.1-7.8,8.9-9.3,8.9-9.3l2.8,4.9c0,0-12.6,22.3-27.9,19.7
				c-15.3-2.6-15.7-3.4-15.7-3.4L378.3,248z"/>
		</g>
		<g>
			<path class="st19" d="M127.3,343.3c-5.8,1.7-10.7,5.5-13.9,10.5h41.3c-3.1-5-8.1-8.8-13.9-10.5V242.2h-13.5v1.6h-14.4V256h14.4
				v2.9h-14.4v12.2h14.4V343.3z"/>
			<g>
				<rect x="121.7" y="243.9" class="st24" width="17.3" height="12.2"/>
				<rect x="121.7" y="258.9" class="st24" width="17.3" height="12.2"/>
				<rect x="134.6" y="243.9" class="st34" width="4.4" height="12.2"/>
				<rect x="134.6" y="258.9" class="st34" width="4.4" height="12.2"/>
				<rect x="136.1" y="242.2" class="st24" width="13.5" height="105.7"/>
				<path class="st34" d="M142.7,351.6h0.4c0.5,0,0.8-0.4,0.8-0.8V246.7c0-0.5-0.4-0.8-0.8-0.8h-0.4c-0.5,0-0.8,0.4-0.8,0.8v104.1
					C141.8,351.2,142.2,351.6,142.7,351.6z"/>
				<g>
					<path class="st24" d="M118.5,366.7c0-13.4,10.9-24.3,24.3-24.3c13.4,0,24.3,10.9,24.3,24.3c0,13.4-10.9,24.3-24.3,24.3
						C129.4,391,118.5,380.1,118.5,366.7z M131.1,366.7c0,6.5,5.3,11.8,11.8,11.8c6.5,0,11.8-5.3,11.8-11.8
						c0-6.5-5.3-11.8-11.8-11.8C136.4,354.9,131.1,360.2,131.1,366.7z"/>
				</g>
				<path class="st34" d="M129.9,366.7c0,7.1,5.8,12.9,12.9,12.9s12.9-5.8,12.9-12.9c0-7.1-5.8-12.9-12.9-12.9
					S129.9,359.5,129.9,366.7z M131.1,366.7c0-6.5,5.3-11.8,11.8-11.8c6.5,0,11.8,5.3,11.8,11.8c0,6.5-5.3,11.8-11.8,11.8
					C136.4,378.4,131.1,373.2,131.1,366.7z"/>
			</g>
			<g>
				<path class="st19" d="M231.4,264.9c-4.3,3.8-19.7,19.9-22.5,11.1c-2.2-6.9-6.9-16.5-9.7-19.7c-1.8-2.1-4.1-3.4-6.7-4.1v-1.1
					c2.7,0,6.8-0.5,6.8-10.2c0-2.9-0.3-4.8-0.8-6.1c0.8-0.8,0.7-2.4,0.2-3.3c-0.7-1.2-2.7-2.3-4-2.9c-3.1-1.4-7.1-2-10.1-0.1
					c-1-1.4-2.7-2.7-3.7-3.3c-1.3-0.7-2.6-1.3-4.1-1.3c-2.8-0.1-5.3,2.1-6.6,4.7c-1.1,2-1.6,4.4-1.1,6.7c0.4,2.3,1.9,4.4,4,5.4
					c0.6,0.3,1.3,0.5,2,0.4c0.9-0.1,1.6-0.7,2.3-1.4c1.5-1.6,1.8-3.5,2.9-5.2c0.2-0.3,0.4-0.4,0.6-0.6c-0.3,1.1-0.5,2.3-0.5,3.4
					c0,3.3,1.1,6.5,2.7,9.5c0.4,0.8,0.9,1.6,1.6,2.1c0.7,0.5,2.5,1,3.2,0.5l-0.3,2.4c-2.1,0.2-4.2,0.8-6.3,1.8c0,0,0,0,0,0
					c-11.6,2.7-20.3,31.1-35.8,29.2v0c-1.9-0.5-3.9-0.7-4.1,1.2c-0.2,3.6,2,4.1,4.1,3.8v0.1c6.5,0,15.1-1.9,22.6-10.2
					c-4.2,23.5-2.5,54.2-2.5,54.2c1.1,0.2,2.2,0.3,3.3,0.4l1.9,21.5h9.9l0-20.5c2,0.1,4,0.1,5.9,0.1l0.2,20.4h11.4l2.2-21.4
					c2-0.3,4-0.6,6-1c-0.4-12.9-0.5-29.8-1.3-44.4c0.6,0.6,1.3,1,2.1,1.2c1.3,0.3,7.1,7,11.3,1.9c4.2-5.1,13-15.8,16.3-21.2
					C234.2,267.1,232.4,266.6,231.4,264.9z"/>
				<polygon class="st35" points="193.9,248.6 193.2,253.6 198.5,254.2 198.5,248.9 				"/>
				<path class="st36" d="M153.5,285c0,0-6.9-3.4-7.1,0c-0.4,6.5,7.1,2.8,7.1,2.8V285z"/>
				<path class="st26" d="M154.5,284c0,0-6.9-3.4-7.1,0c-0.4,6.5,7.1,2.8,7.1,2.8V284z"/>
				<g>
					<path class="st26" d="M189.2,241c0,4.5,4.7,10.2,9.2,10.2c2.7,0,7-0.4,7-10.2c0-10.3-3.4-8.2-8-8.2
						C192.8,232.8,189.2,236.4,189.2,241z"/>
				</g>
				<path class="st33" d="M196,244.8c0-3.8,0.5-8.3,1.9-12c-0.2,0-0.4,0-0.6,0c-4.5,0-8.2,3.7-8.2,8.2c0,4.4,4.5,9.9,8.9,10.1
					C196.7,249.4,196,247.3,196,244.8z"/>
				<path class="st24" d="M203.6,235.5c-0.7,0.1-1.5-0.2-2.2,0c-1.1,0.4-1.2,2.1-2.2,2.7c-1.3,0.8-3.1-0.6-4.2,0.4
					c-0.6,0.6-0.6,1.6-0.5,2.5c0.2,2.3-0.1,4.6-0.7,6.8c-0.2,0.5,0.5,1.4,0.1,1.8c-0.7,0.6-2.6,0.1-3.3-0.4
					c-0.7-0.5-1.2-1.3-1.6-2.1c-1.5-3-2.7-6.2-2.7-9.6s1.4-6.8,4.1-8.8c3-2.1,7.2-1.5,10.3-0.1c1.3,0.6,3.3,1.7,4,2.9
					C205.5,232.9,205.3,235.2,203.6,235.5z"/>
				<path class="st34" d="M202.7,229.8c-1.1,1-2.1,2.7-2.9,3.2c-1.1,0.8-2.4,0.9-3.7,1.3c-5.8,1.8-6.2,10.7-3.7,15.5
					c0.6,0.1,1.2,0.1,1.5-0.2c0.4-0.3-0.3-1.3-0.1-1.8c0.7-2.2,0.9-4.5,0.7-6.8c-0.1-0.9-0.1-1.9,0.5-2.5c1.1-1,3,0.3,4.2-0.4
					c1-0.6,1.1-2.3,2.2-2.7c0.7-0.3,1.5,0.1,2.2,0c1.8-0.3,1.9-2.6,1.1-3.8C204.3,231,203.6,230.3,202.7,229.8z"/>
				<path class="st24" d="M186.9,225.4c-1.3-0.7-2.6-1.3-4.1-1.3c-2.8-0.1-5.3,2.1-6.6,4.7c-1.1,2.1-1.6,4.5-1.1,6.8
					c0.4,2.3,1.9,4.4,4,5.4c0.6,0.3,1.3,0.5,2,0.4c0.9-0.1,1.6-0.7,2.3-1.4c1.5-1.6,1.8-3.5,2.9-5.2c0.9-1.4,2.9-0.8,4.2-1.7
					C193.7,230.6,189,226.5,186.9,225.4z"/>
				<path class="st34" d="M188.4,231.5c-0.6-0.3-1.1-0.9-1.7-1.2c-0.9-0.9-5.3-1.4-6.2,4.7c-0.3,1.8-1.7,3.7-3.1,4.7
					c0.5,0.5,1.1,0.9,1.7,1.2c0.6,0.3,1.3,0.5,2,0.4c0.9-0.1,1.6-0.7,2.3-1.4c1.5-1.6,1.8-3.5,2.9-5.2c0.9-1.4,2.9-0.8,4.2-1.7
					c0.5-0.3,0.8-0.7,1-1.1C190.5,232.2,189.5,232.1,188.4,231.5z"/>
				<path class="st22" d="M185.5,387.3c3.9,0.9,7.1,2.1,8.9,3.7h-15l0.3-3.5L185.5,387.3z"/>
				<path class="st22" d="M198.9,387.3c3.9,0.9,7.1,2.1,8.9,3.7h-15l0.3-3.5L198.9,387.3z"/>
				<path class="st36" d="M237.8,261.5c-0.1,0-0.2-0.1-0.3-0.1c-0.6-0.2-1.1,0.2-1.5,0.6c-0.8,0.6-2.4,1.9-3,2.6c0,0,0,0,0,0
					c-0.2,0.2-0.4,0.4-0.6,0.6c-0.5,0.8-0.7,1.8-0.2,2.6c0.4,0.6,1.1,1.1,1.8,1.1c1,0,2.5-0.6,3.1-1.4c0.7-0.8,0.6-1.7,0.1-2.7
					c-0.3-0.6-0.8-1-1.4-1.1c0.6-0.4,1.2-0.8,1.8-1.3c0.1-0.1,0.3-0.2,0.3-0.4C238,261.8,238,261.6,237.8,261.5z"/>
				<g>
					<g>
						<path class="st26" d="M237.5,263.7c0.5,0.9,0.6,1.9-0.1,2.7c-0.7,0.8-2.1,1.4-3.1,1.4c-0.7,0-1.4-0.4-1.8-1.1
							c-0.5-0.8-0.3-1.8,0.2-2.6C233.7,262.5,236.4,261.6,237.5,263.7z"/>
					</g>
					<g>
						<path class="st26" d="M235.7,262.8c0.8-0.4,1.5-1,2.2-1.6c0.1-0.1,0.3-0.2,0.3-0.4c0.1-0.2,0-0.4-0.1-0.5
							c-0.1,0-0.2-0.1-0.3-0.1c-0.6-0.2-1.1,0.2-1.5,0.6c-0.8,0.6-2.4,1.9-3,2.6C233.7,263.6,235.2,263.1,235.7,262.8z"/>
					</g>
				</g>
				<g>
					<path class="st22" d="M216.6,276.6c5.6-3.7,10-7.7,15-12.1c0.3-0.3,0.8-0.3,1.1,0.1c0.9,1.1,2.4,2.7,2.3,3.4
						c-0.1,0.4-0.4,0.7-0.6,1c-4.7,5.2-9.4,10.4-14.1,15.6c-0.9,1-1.9,2.1-3,2.8c-1.2,0.7-2.6,1.2-3.9,0.8c-2.3-0.6-3.5-2.9-4.8-4.9
						c-6.1-9.8-5.1-13.3-4.3-16.3c0.5-2.1,1.2-4.2,1.5-6.3c0.1-0.7-1.5-4.4-0.6-4.5c2.7,3.2,6.9,13,9.7,19.7
						C215.1,276.7,216,277,216.6,276.6z"/>
				</g>
				<g>
					<g>
						<path class="st37" d="M172.7,307.8l7.1,80.2c0,0,2.5,0.6,3.3,0.6c0.4,0,1.2-0.1,1.9-0.2c0.8-0.2,1.5-0.3,1.5-0.3l0.1-60.6h5.8
							l0.7,60.6c0,0,1.8,0.5,3.6,0.5c1.8,0,3.9-0.5,3.9-0.5l8.5-82.2L172.7,307.8z"/>
					</g>
					<g>
						<path class="st38" d="M190.9,313.8c0,2.7-0.1,5.2,0.8,7.6c0.7,1.9,2.4,3.2,4.8,3.1c3.5-0.1,5.9-2,5.9-5.5
							c0-0.5,0.2-5.2,0.5-5.3C202.9,313.8,190.9,313.8,190.9,313.8z"/>
					</g>
					<g>
						<path class="st38" d="M174.3,313.8c0,2.7-0.1,5.2,0.6,7.6c0.5,1.9,1.7,3.2,3.4,3.2c2.4-0.1,3.8-2.8,4.1-5.5
							c0.1-0.4,0.1-5.2,0.3-5.3C182.7,313.8,174.3,313.8,174.3,313.8z"/>
					</g>
					<g>
						<path class="st39" d="M186.7,327.3C186.7,327.3,186.7,327.3,186.7,327.3c0.1,0,0.2-0.1,0.1-0.2c-0.9-5.4-0.3-15.9-0.3-16
							c0,0,0-0.1,0-0.1c0,0-0.1,0-0.1,0c-0.1,0-9.4,0.4-13.4-0.6c-0.1,0-0.2,0-0.2,0.1c0,0.1,0,0.2,0.1,0.2c3.7,0.9,12,0.6,13.3,0.6
							c-0.1,1.4-0.6,10.8,0.3,15.9C186.5,327.3,186.6,327.3,186.7,327.3z"/>
					</g>
					<g>
						<path class="st39" d="M187.8,327.3C187.8,327.3,187.8,327.3,187.8,327.3c0.1,0,0.2-0.1,0.1-0.2c-0.6-6.4-0.6-11.4-0.2-15.8
							c5.6-0.1,12.3-0.8,20.1-2.2c0.1,0,0.1-0.1,0.1-0.2c0-0.1-0.1-0.1-0.2-0.1c-7.8,1.4-14.6,2.1-20.2,2.2c-0.1,0-0.1,0.1-0.1,0.1
							c-0.4,4.5-0.4,9.5,0.2,16C187.7,327.3,187.8,327.3,187.8,327.3z"/>
					</g>
					<g class="st40">
						<path class="st41" d="M185.1,388.3c0.8-0.2,1.5-0.3,1.5-0.3l0.1-60.6h0.5c-0.1-0.2-0.3-0.2-0.5-0.2c-1.1,0.5-1.7,1.3-2.4,2.2
							c-0.6,0.8-0.9,1.7-0.9,2.6C182.9,350.8,184,365,185.1,388.3z"/>
					</g>
					<g>
						<path class="st39" d="M200.1,386.3c-0.1,0-0.1-0.1-0.1-0.2l0.1-1.2c0-0.1,0.1-0.1,0.2-0.1c0.1,0,0.1,0.1,0.1,0.2l-0.1,1.2
							C200.3,386.2,200.2,386.3,200.1,386.3C200.1,386.3,200.1,386.3,200.1,386.3z M200.5,382.8c-0.1,0-0.1-0.1-0.1-0.2l0.2-2.3
							c0-0.1,0.1-0.2,0.2-0.1c0.1,0,0.1,0.1,0.1,0.2l-0.2,2.3C200.6,382.7,200.6,382.8,200.5,382.8
							C200.5,382.8,200.5,382.8,200.5,382.8z M200.9,378.1c-0.1,0-0.1-0.1-0.1-0.2l0.2-2.3c0-0.1,0.1-0.1,0.2-0.1
							c0.1,0,0.1,0.1,0.1,0.2l-0.2,2.3C201.1,378,201,378.1,200.9,378.1C201,378.1,201,378.1,200.9,378.1z M201.4,373.4
							c-0.1,0-0.1-0.1-0.1-0.2l0.2-2.3c0-0.1,0.1-0.2,0.2-0.1c0.1,0,0.1,0.1,0.1,0.2l-0.2,2.3C201.6,373.4,201.5,373.4,201.4,373.4
							C201.4,373.4,201.4,373.4,201.4,373.4z M201.9,368.8c-0.1,0-0.1-0.1-0.1-0.2l0.2-2.3c0-0.1,0.1-0.1,0.2-0.1
							c0.1,0,0.1,0.1,0.1,0.2l-0.2,2.3C202.1,368.7,202,368.8,201.9,368.8C201.9,368.8,201.9,368.8,201.9,368.8z M202.4,364.1
							c-0.1,0-0.1-0.1-0.1-0.2l0.2-2.3c0-0.1,0.1-0.2,0.2-0.1c0.1,0,0.1,0.1,0.1,0.2l-0.2,2.3C202.5,364.1,202.5,364.1,202.4,364.1
							C202.4,364.1,202.4,364.1,202.4,364.1z M202.9,359.5c-0.1,0-0.1-0.1-0.1-0.2l0.2-2.3c0-0.1,0.1-0.2,0.2-0.1
							c0.1,0,0.1,0.1,0.1,0.2l-0.2,2.3C203,359.4,202.9,359.5,202.9,359.5C202.9,359.5,202.9,359.5,202.9,359.5z M203.3,354.8
							c-0.1,0-0.1-0.1-0.1-0.2l0.2-2.3c0-0.1,0.1-0.2,0.2-0.1c0.1,0,0.1,0.1,0.1,0.2l-0.2,2.3C203.5,354.8,203.4,354.8,203.3,354.8
							C203.3,354.8,203.3,354.8,203.3,354.8z M203.8,350.1c-0.1,0-0.1-0.1-0.1-0.2l0.2-2.3c0-0.1,0.1-0.2,0.2-0.1
							c0.1,0,0.1,0.1,0.1,0.2L204,350C204,350.1,203.9,350.2,203.8,350.1C203.8,350.2,203.8,350.2,203.8,350.1z M204.3,345.5
							c-0.1,0-0.1-0.1-0.1-0.2l0.2-2.3c0-0.1,0.1-0.1,0.1-0.1c0,0,0,0,0,0c0.1,0,0.1,0.1,0.1,0.2l-0.2,2.3
							C204.4,345.4,204.4,345.5,204.3,345.5C204.3,345.5,204.3,345.5,204.3,345.5z M204.8,340.8c-0.1,0-0.1-0.1-0.1-0.2l0.2-2.3
							c0-0.1,0.1-0.2,0.2-0.1c0.1,0,0.1,0.1,0.1,0.2l-0.2,2.3C204.9,340.8,204.8,340.8,204.8,340.8
							C204.8,340.8,204.8,340.8,204.8,340.8z M205.2,336.2c-0.1,0-0.1-0.1-0.1-0.2l0.2-2.3c0-0.1,0.1-0.1,0.2-0.1
							c0.1,0,0.1,0.1,0.1,0.2l-0.2,2.3C205.4,336.1,205.3,336.2,205.2,336.2C205.2,336.2,205.2,336.2,205.2,336.2z M205.7,331.5
							c-0.1,0-0.1-0.1-0.1-0.2l0.2-2.3c0-0.1,0.1-0.2,0.2-0.1c0.1,0,0.1,0.1,0.1,0.2l-0.2,2.3C205.9,331.5,205.8,331.5,205.7,331.5
							C205.7,331.5,205.7,331.5,205.7,331.5z M206.2,326.9c-0.1,0-0.1-0.1-0.1-0.2l0.2-2.3c0-0.1,0.1-0.1,0.2-0.1
							c0.1,0,0.1,0.1,0.1,0.2l-0.2,2.3C206.3,326.8,206.3,326.9,206.2,326.9C206.2,326.9,206.2,326.9,206.2,326.9z M206.7,322.2
							c-0.1,0-0.1-0.1-0.1-0.2l0.2-2.3c0-0.1,0.1-0.2,0.2-0.1c0.1,0,0.1,0.1,0.1,0.2l-0.2,2.3C206.8,322.1,206.7,322.2,206.7,322.2
							C206.7,322.2,206.7,322.2,206.7,322.2z M207.1,317.5c-0.1,0-0.1-0.1-0.1-0.2l0.2-2.3c0-0.1,0.1-0.2,0.2-0.1
							c0.1,0,0.1,0.1,0.1,0.2l-0.2,2.3C207.3,317.5,207.2,317.5,207.1,317.5C207.1,317.5,207.1,317.5,207.1,317.5z M207.6,312.9
							c-0.1,0-0.1-0.1-0.1-0.2l0.2-2.3c0-0.1,0.1-0.2,0.2-0.1c0.1,0,0.1,0.1,0.1,0.2l-0.2,2.3C207.8,312.8,207.7,312.9,207.6,312.9
							C207.6,312.9,207.6,312.9,207.6,312.9z"/>
					</g>
				</g>
				<path class="st22" d="M187.2,253.6c-11.6,2.7-20.3,31.1-35.8,29.2v5.1c7.2,0,17.1-2.3,25.2-13.4
					C188.4,258.4,187.2,253.6,187.2,253.6z"/>
				<path class="st42" d="M187.2,253.6c-11.6,2.7-20.3,31.1-35.8,29.2v5.1c7.2,0,17.1-2.3,25.2-13.4
					C188.4,258.4,187.2,253.6,187.2,253.6z"/>
				<path class="st22" d="M205.1,256.3c7.1,8.1,6.5,49.4,7.3,75.1c-12.8,2.7-26.5,2.6-40.9,0.5c0,0-2.2-41.3,5-64.7
					C181.4,251.3,197.6,247.7,205.1,256.3z"/>
				<path class="st42" d="M181.3,310.8c-2.7-8.7-3.9-17.7-3.8-26.8c0-7.7,0.2-16,2.2-23.6c-1.3,1.9-2.4,4.2-3.2,6.8
					c-7.2,23.4-5,64.7-5,64.7c7.3,1.1,14.4,1.6,21.3,1.5C187.6,326.8,183.9,319,181.3,310.8z"/>
			</g>
		</g>
		<g>
			<path class="st12" d="M68.3,243.4c1-0.1,8.2-5.3,10.9-7.1c0.8-0.5,1.6-1,2.1-1.8c0.5-0.7,0.8-1.8,0.4-2.6c-0.5-1-1.3-2.1-3.3-2.1
				c-3.5,0-4.8,1.2-6.5,3C66.2,238.7,68.3,243.4,68.3,243.4z"/>
			<path class="st12" d="M100.2,264.7c3.1,1.4,6.4,2.8,9.8,2.4c1.3-0.2,2.7-0.8,3.2-2c0.4-1.1-0.1-2.3-1-3c-0.8-0.7-2-1.1-3-1.4
				c-4.1-1-9.9-0.4-14,0.7C95.1,261.3,98.4,263.9,100.2,264.7z"/>
			<path class="st12" d="M120.6,218.9c-1.4-0.9-2.9-2-2.9-3.7c0-1.6,1.7-2.9,3.4-2.9c1.6,0,3.2,0.9,4.4,2c5.2,4.6,4.6,9.8,4.6,9.8
				S122.2,219.9,120.6,218.9z"/>
			<path class="st12" d="M124.8,204.9c-1.2-0.5-2.5-1.2-3.2-2.3c-0.3-0.5-0.5-1.2-0.3-1.8c0.4-1,1-1.9,3.6-1.5c8.1,1.5,9.9,7,9.9,7
				S126.9,205.9,124.8,204.9z"/>
			<path class="st12" d="M148.5,217.2c3.2-0.3,6.6-1.9,8.6-4.4c0.8-1,1.5-2,1.7-3.2c0.3-1.2,0-2.6-0.9-3.4c-1.1-1-2.9-0.8-4.2,0
				c-1.3,0.8-2.1,2.2-2.7,3.5C150.1,211.5,148.5,217.2,148.5,217.2z"/>
			<path class="st43" d="M90.5,335.6c-7.9-6.9-15.7-13.9-23.6-20.8c-4.2-3.7-8.5-7.5-11.1-12.4c-5.7-10.6-2.4-24.3,5.3-33.5
				c7.7-9.2,19-14.7,30.3-18.6c11.3-4,23.1-6.7,33.9-12c6.8-3.3,13.6-8.2,15.5-15.5c1.1-4.4,0.2-9.3-2.5-12.9c-2.7-3.7-7-6-11.5-6.3
				"/>
			<path class="st43" d="M154,209.7c-2.1,6.6-10.5,10.6-14.3,16.3"/>
			<path class="st43" d="M123.9,217.2c1.6,1.7,3.6,3.2,5.1,5.1c3,4.1,3.3,10.6-1.2,14.7"/>
			<path class="st43" d="M81.6,254.2c6.9,5.3,16.1,8.9,24.8,9.2"/>
			<path class="st43" d="M65.7,263.9c-3.2-9.4,0.3-20.7,8.2-26.7"/>
		</g>
		<g>
			<path class="st12" d="M340.6,134.5c-0.4-1.2-0.4-2.6,0.5-3.5c0.7-0.7,1.8-1,2.7-0.6c6.9,3,6.1,13.8,6.1,13.8
				S343.4,143.3,340.6,134.5z"/>
			<path class="st12" d="M340.5,154.7c-4.4,8.1,11.4,7.4,17.1,2.7C357.5,157.4,344.3,147.8,340.5,154.7z"/>
			<path class="st12" d="M360.4,135.1c-1.1-1.5-1.5-3.7-0.3-5.1c0.9-1,2.4-1.4,3.7-1.1c1.3,0.3,3.3,1.5,4.2,2.6
				c5.2,6.5,2.8,12.8,2.8,12.8S362.2,137.6,360.4,135.1z"/>
			<path class="st12" d="M423.2,155.1c-0.4-1.3-0.3-2.8,0.7-3.7c0.6-0.6,1.5-0.8,2.3-0.7c0.8,0.1,1.6,0.4,2.4,0.7
				c1.6,0.7,2.9,2,3.6,3.6c2,4,0.6,9,0.6,9S424.2,158.2,423.2,155.1z"/>
			<path class="st12" d="M403.5,169.9c-2.8-2.5-7.1-3.2-10.5-1.7c-0.9,0.4-1.7,0.9-2.2,1.7c-1.2,1.7-0.8,4.3,0.5,6
				c1.3,1.7,3.3,2.7,5.2,3.6c3.5,1.6,9,1.9,12.7,2.9C409.2,182.4,409.2,174.9,403.5,169.9z"/>
			<path class="st43" d="M345.6,136.3c2.3,7.6,8.9,13.4,16.2,16.5c7.3,3.1,15.4,3.9,23.4,4.5c7.9,0.5,16,0.8,23.7,2.9
				c7.5,2,14.9,6.3,18.2,13.4c3.9,8.6,0.4,18.9-5,26.6c-5.5,7.7-12.9,13.9-18.2,21.8c-2.4,3.6-4.5,7.8-4,12.1
				c0.7,5.8,5.5,10,10,13.6"/>
			<path class="st43" d="M363.9,133.5c5.3,5.8,9.5,15,10.5,22.8"/>
			<path class="st43" d="M346.2,156c3,0.8,6.1,1.6,9.2,1.6c3.1,0,6.7-1.7,9-3.9"/>
			<path class="st43" d="M428.4,155.6c2.8,2.7,4.5,6.6,4.7,10.5c0.1,3.9-2,8.7-4.6,11.6"/>
			<path class="st43" d="M398.9,173.4c5.6,5.2,10.5,9.4,16.8,13.8c2.9,2,8.5,4.6,11.1,3.9"/>
		</g>
	</g>
</g>
<g id="DESIGNED_BY_FREEPIK" class="st44">
	<g class="st45">
		<g id="XMLID_319_">
			<g id="XMLID_338_">
				<path id="XMLID_346_" class="st46" d="M260.1,475.5c-0.4,0.4-0.8,0.9-1.1,1.5l-0.5-0.2c-0.1-0.3-0.3-0.5-0.7-0.5
					c-0.3,0-0.6,0.3-0.5,0.7c0,0.3,0.3,0.6,0.7,0.5c0.1,0,0.1,0,0.2-0.1l0.5,0.2c-0.3,0.6-0.4,1.1-0.5,1.7l0.7,0.1
					c0.2-1.3,0.8-2.5,1.8-3.5L260.1,475.5z"/>
				<path id="XMLID_345_" class="st46" d="M265.6,473.2c-0.2,0-0.3,0-0.5,0l-0.1-0.6c0.2-0.1,0.3-0.4,0.3-0.6c0-0.4-0.4-0.7-0.8-0.6
					c-0.4,0-0.7,0.4-0.6,0.8c0,0.3,0.2,0.5,0.4,0.6l0.1,0.6c-0.7,0.1-1.4,0.3-2.1,0.6l0.3,0.7c0.9-0.4,1.9-0.7,3-0.7
					c0.5,0,1,0.1,1.5,0.2l0.2-0.7C266.7,473.3,266.1,473.2,265.6,473.2z"/>
				<path id="XMLID_344_" class="st46" d="M272.2,475.8c0.3,0,0.6-0.3,0.5-0.7c0-0.3-0.3-0.6-0.7-0.5c-0.3,0-0.5,0.3-0.5,0.6
					l-0.4,0.4c-0.4-0.4-0.9-0.8-1.4-1.1l-0.4,0.6c1.1,0.7,2,1.7,2.6,2.9l0.7-0.3c-0.3-0.6-0.6-1.1-0.9-1.5l0.4-0.4
					C272.1,475.8,272.1,475.8,272.2,475.8z"/>
				<path id="XMLID_343_" class="st46" d="M265,483.4c-0.4,0-0.8,0-1.2,0c-0.9,0-1.7-0.1-2.5-0.2c-0.4-0.1-0.8-0.2-1.3-0.3
					c1,1.9,3.1,3.1,5.4,3.1c2.9,0,5.3-1.9,5.9-4.5c-0.7,0.4-1.5,0.8-2.5,1.1C267.8,483.1,266.5,483.4,265,483.4z"/>
				<path id="XMLID_339_" class="st46" d="M265.6,474.7c-3.4,0-6.1,2.7-6.1,5.9c0,0.4,0,0.8,0.1,1.3c0.7,0.5,2.7,0.9,5.3,0.7
					c2.9-0.2,5.3-1,6.7-2.2c0-0.2,0-0.4,0-0.6C271.2,477,268.7,474.7,265.6,474.7z M263.4,481.3c-1,0-1.8-0.8-1.8-1.8
					c0-1,0.8-1.8,1.8-1.8c1,0,1.8,0.8,1.8,1.8C265.3,480.4,264.5,481.3,263.4,481.3z M268.2,480.4c-0.8,0-1.4-0.6-1.4-1.4
					s0.6-1.4,1.4-1.4c0.8,0,1.4,0.6,1.4,1.4S268.9,480.4,268.2,480.4z"/>
			</g>
			<path id="XMLID_336_" class="st46" d="M281.6,476.6c-0.3-0.1-0.8-0.3-1.4-0.2c-0.6,0.1-0.8,0.3-0.8,1v0.9h2.2v1.7h-2.2v5.5h-1.9
				V480h-1.3v-1.7h1.3v-0.9c0-1.7,0.9-2.8,2.6-2.8c0.6,0,1.2,0.1,1.6,0.3L281.6,476.6z"/>
			<path id="XMLID_334_" class="st46" d="M286.3,479.9c-0.2,0-0.4,0-0.5,0c-0.9,0-1.5,0.5-1.5,1.6v3.9h-1.9v-7.2h1.9v0.8
				c0.5-0.7,1.1-1,2-1c0.4,0,0.8,0.1,1.1,0.3L286.3,479.9z"/>
			<path id="XMLID_331_" class="st46" d="M294,481.8c0,0.2,0,0.5,0,0.7h-5.1c0.2,1,0.9,1.5,1.8,1.5c0.6,0,1.3-0.3,1.8-0.7l1.1,1.2
				c-0.8,0.7-1.9,1.1-3.1,1.1c-2.2,0-3.7-1.5-3.7-3.8c0-2.3,1.5-3.8,3.6-3.8C292.5,478.1,294,479.6,294,481.8z M288.9,481.2h3.2
				c-0.2-0.9-0.7-1.4-1.6-1.4C289.6,479.7,289,480.3,288.9,481.2z"/>
			<path id="XMLID_328_" class="st46" d="M301.6,481.8c0,0.2,0,0.5,0,0.7h-5.1c0.2,1,0.9,1.5,1.8,1.5c0.6,0,1.3-0.3,1.8-0.7l1.1,1.2
				c-0.8,0.7-1.9,1.1-3.1,1.1c-2.2,0-3.7-1.5-3.7-3.8c0-2.3,1.5-3.8,3.6-3.8C300.2,478.1,301.6,479.6,301.6,481.8z M296.5,481.2h3.2
				c-0.2-0.9-0.7-1.4-1.6-1.4C297.2,479.7,296.7,480.3,296.5,481.2z"/>
			<path id="XMLID_325_" class="st46" d="M310,481.8c0,2.2-1.5,3.8-3.5,3.8c-1,0-1.6-0.4-2.1-0.9v3.7h-1.9v-10.1h1.9v0.8
				c0.5-0.6,1.2-1,2.1-1C308.5,478.1,310,479.7,310,481.8z M304.3,481.8c0,1.1,0.7,2,1.8,2c1.1,0,1.9-0.9,1.9-2c0-1.1-0.7-2-1.9-2
				C305,479.9,304.3,480.7,304.3,481.8z"/>
			<path id="XMLID_322_" class="st46" d="M313.1,475.9c0,0.7-0.5,1.2-1.2,1.2c-0.7,0-1.2-0.5-1.2-1.2c0-0.7,0.5-1.2,1.2-1.2
				C312.5,474.7,313.1,475.2,313.1,475.9z M312.8,485.4h-1.9v-7.2h1.9V485.4z"/>
			<path id="XMLID_320_" class="st46" d="M316,480.8l2.7-2.6h2.4l-3.5,3.4l3.5,3.8h-2.4l-2.7-2.9v2.9h-1.9v-10.7h1.9V480.8z"/>
		</g>
		<g>
			<path class="st46" d="M184.4,485.4v-1.1c-0.5,0.7-1.4,1.2-2.4,1.2c-1.8,0-3.1-1.4-3.1-3.7c0-2.3,1.3-3.7,3.1-3.7
				c1,0,1.8,0.5,2.4,1.2v-3.8h1.1v9.8H184.4z M184.4,483.4v-3.2c-0.4-0.6-1.2-1.1-2.1-1.1c-1.4,0-2.3,1.2-2.3,2.7
				c0,1.6,0.8,2.7,2.3,2.7C183.2,484.6,184,484.1,184.4,483.4z"/>
			<path class="st46" d="M186.9,481.8c0-2.1,1.5-3.7,3.5-3.7c2.1,0,3.4,1.7,3.4,3.8v0.3h-5.7c0.1,1.3,1,2.4,2.5,2.4
				c0.8,0,1.6-0.3,2.2-0.9l0.5,0.7c-0.7,0.7-1.7,1.1-2.8,1.1C188.4,485.5,186.9,484,186.9,481.8z M190.4,479c-1.5,0-2.3,1.3-2.3,2.4
				h4.6C192.7,480.3,192,479,190.4,479z"/>
			<path class="st46" d="M194.6,484.4l0.6-0.8c0.5,0.5,1.4,1,2.3,1c1.1,0,1.7-0.5,1.7-1.2c0-1.7-4.4-0.7-4.4-3.3c0-1.1,1-2,2.6-2
				c1.2,0,2.1,0.5,2.6,1l-0.5,0.8c-0.4-0.5-1.2-0.9-2.1-0.9c-1,0-1.6,0.5-1.6,1.1c0,1.6,4.4,0.5,4.4,3.3c0,1.2-1,2.1-2.8,2.1
				C196.3,485.5,195.3,485.2,194.6,484.4z"/>
			<path class="st46" d="M201.5,476.5c0-0.4,0.3-0.7,0.7-0.7c0.4,0,0.7,0.3,0.7,0.7c0,0.4-0.3,0.7-0.7,0.7
				C201.8,477.3,201.5,477,201.5,476.5z M201.7,485.4v-7.1h1.1v7.1H201.7z"/>
			<path class="st46" d="M204.6,487.2l0.6-0.8c0.6,0.7,1.3,1,2.3,1c1.2,0,2.3-0.6,2.3-2.1v-1c-0.5,0.7-1.4,1.3-2.4,1.3
				c-1.8,0-3.1-1.4-3.1-3.7c0-2.3,1.3-3.7,3.1-3.7c1,0,1.8,0.5,2.4,1.2v-1.1h1.1v6.9c0,2.3-1.6,3.1-3.4,3.1
				C206.2,488.2,205.4,488,204.6,487.2z M209.7,483.3v-3.1c-0.4-0.6-1.2-1.1-2.1-1.1c-1.4,0-2.3,1.1-2.3,2.7c0,1.6,0.8,2.7,2.3,2.7
				C208.5,484.5,209.3,483.9,209.7,483.3z"/>
			<path class="st46" d="M217.4,485.4v-4.6c0-1.2-0.6-1.6-1.6-1.6c-0.9,0-1.7,0.5-2.1,1.1v5.2h-1.1v-7.1h1.1v1
				c0.5-0.6,1.5-1.2,2.5-1.2c1.5,0,2.3,0.7,2.3,2.3v5H217.4z"/>
			<path class="st46" d="M219.9,481.8c0-2.1,1.5-3.7,3.5-3.7c2.1,0,3.4,1.7,3.4,3.8v0.3h-5.7c0.1,1.3,1,2.4,2.5,2.4
				c0.8,0,1.6-0.3,2.2-0.9l0.5,0.7c-0.7,0.7-1.7,1.1-2.8,1.1C221.4,485.5,219.9,484,219.9,481.8z M223.4,479c-1.5,0-2.3,1.3-2.3,2.4
				h4.6C225.7,480.3,225,479,223.4,479z"/>
			<path class="st46" d="M233.4,485.4v-1.1c-0.5,0.7-1.4,1.2-2.4,1.2c-1.8,0-3.1-1.4-3.1-3.7c0-2.3,1.3-3.7,3.1-3.7
				c1,0,1.8,0.5,2.4,1.2v-3.8h1.1v9.8H233.4z M233.4,483.4v-3.2c-0.4-0.6-1.2-1.1-2.1-1.1c-1.4,0-2.3,1.2-2.3,2.7
				c0,1.6,0.8,2.7,2.3,2.7C232.1,484.6,233,484.1,233.4,483.4z"/>
			<path class="st46" d="M239.7,485.4v-9.8h1.1v3.8c0.6-0.8,1.4-1.2,2.4-1.2c1.8,0,3.1,1.5,3.1,3.7c0,2.3-1.3,3.7-3.1,3.7
				c-1,0-1.9-0.5-2.4-1.2v1.1H239.7z M242.9,484.6c1.4,0,2.3-1.2,2.3-2.7c0-1.6-0.8-2.7-2.3-2.7c-0.9,0-1.7,0.5-2.1,1.1v3.2
				C241.2,484.1,242,484.6,242.9,484.6z"/>
			<path class="st46" d="M247.5,487.1c0.2,0.1,0.4,0.1,0.6,0.1c0.5,0,0.8-0.2,1.1-0.7l0.5-1.1l-3-7.1h1.2l2.4,5.8l2.3-5.8h1.2
				l-3.5,8.5c-0.4,1-1.1,1.4-2.1,1.4c-0.2,0-0.6,0-0.8-0.1L247.5,487.1z"/>
		</g>
	</g>
</g>
</svg>
